<svg width="71" height="82" xmlns="http://www.w3.org/2000/svg" xml:space="preserve" version="1.1">

 <g>
  <title>Layer 1</title>
  <g id="svg_14">
   <g id="XMLID_00000108277647756538333540000000997899089045722293_">
    <polygon fill="#3D4647" points="49.899993896484375,26.39999771118164 49.899993896484375,8.299999237060547 35.5,0 19.79999542236328,8.999996185302734 " class="st2" id="XMLID_00000150060067849458736960000006735052585784897464_"/>
    <polygon fill="#3D4647" points="55.399993896484375,46.20000076293945 71.09999084472656,37.10000228881836 71.09999084472656,20.499996185302734 55.399993896484375,11.39999771118164 " class="st2" id="XMLID_00000088815616100048991300000013602603256512101821_"/>
    <polygon fill="#3D4647" points="21.199996948242188,55.60000228881836 21.199996948242188,73.69999313354492 35.5,81.99999618530273 51.19999694824219,72.99999618530273 " class="st2" id="XMLID_00000134971090279192786570000014355628384586202028_"/>
    <polygon fill="#3D4647" points="40.899993896484375,60.79999923706055 56.59999084472656,69.90000534057617 71.09999084472656,61.499996185302734 71.09999084472656,43.39999771118164 " class="st2" id="XMLID_00000146473276967616144240000005455589746080502935_"/>
    <polygon fill="#3D4647" points="30.099998474121094,21.200000762939453 14.399993896484375,12.200000762939453 0,20.499996185302734 0,38.60000228881836 " class="st2" id="XMLID_00000133524014193942416830000008856807516842933157_"/>
    <polygon fill="#3D4647" points="15.699996948242188,35.79999923706055 0,44.89999771118164 0,61.499996185302734 15.699996948242188,70.60000228881836 " class="st2" id="XMLID_00000042721341120810350550000011153432935025117114_"/>
   </g>
   <polygon fill="#40AA1D" points="49.899993896484375,49.29999923706055 35.5,57.60000228881836 21.099998474121094,49.29999923706055 21.099998474121094,32.70000076293945 35.5,24.39999771118164 49.899993896484375,32.70000076293945 " class="st1" id="XMLID_00000183932818328153709640000014399679920410293890_"/>
  </g>
 </g>
</svg>